<svg width="109" height="18" viewBox="0 0 109 18" fill="none" xmlns="http://www.w3.org/2000/svg">
<g clip-path="url(#clip0_13_1016)">
<path d="M106.228 18H8.45749C6.92638 18 5.68526 16.7539 5.68526 15.2167L0.279999 2.78327C0.279999 1.24606 1.52112 0 3.05223 0H106.224C107.755 0 108.996 1.24606 108.996 2.78327V15.2129C108.996 16.7501 107.755 17.9961 106.224 17.9961L106.228 18Z" fill="url(#paint0_linear_13_1016)"/>
<path d="M12.9382 11.7487H15.8643L15.7376 12.4399H10.9107L12.27 5.42426H14.1593L12.9382 11.7487ZM22.604 6.11546H19.7586L19.2863 8.60378H21.1295L21.0027 9.28346H19.148L18.6757 11.7487H21.6018L21.4751 12.4399H16.6482L18.0075 5.42426H22.7423L22.604 6.11546ZM26.2071 12.4399L25.9306 10.6889H23.6381L22.728 12.4399H21.841L25.5965 5.42426H27.0135L27.9696 12.4399H26.2071ZM23.9837 10.0207H25.8269L25.5965 8.53466C25.5197 8.10458 25.4813 7.72826 25.4813 7.4057C25.4813 7.35962 25.489 7.27514 25.5044 7.15226H25.4352C25.3892 7.33658 25.2317 7.66298 24.9629 8.13146C24.8631 8.32346 24.794 8.45786 24.7556 8.53466L23.9837 10.0207ZM28.8994 12.4399L30.2588 5.42426H33.0927C33.7532 5.42426 34.2946 5.53946 34.717 5.76986C35.1394 6.00026 35.3506 6.3881 35.3506 6.93338C35.3506 7.09466 35.3353 7.24058 35.3045 7.37114C35.0895 8.39258 34.4405 9.04538 33.3577 9.32954L33.3461 9.39866C33.7916 9.4601 34.0681 9.69818 34.1756 10.1129L34.8207 12.4399H32.6319L32.1135 10.0438C31.9983 9.69818 31.7449 9.51002 31.3532 9.4793L30.7772 12.4399H28.8994ZM31.4684 8.85722H31.8255C32.6857 8.85722 33.2117 8.38106 33.4037 7.42874C33.4421 7.19834 33.4613 7.03706 33.4613 6.9449C33.4613 6.54554 33.3538 6.29594 33.1388 6.1961C32.9237 6.08858 32.6703 6.03482 32.3785 6.03482H32.0213L31.4684 8.85722ZM35.7957 12.4399L37.155 5.42426H39.0789L40.7723 8.66138C40.9336 9.03002 41.0104 9.39866 41.0027 9.7673H41.0718C41.0949 9.47546 41.1525 9.07994 41.2446 8.58074L41.8552 5.42426H42.6386L41.2792 12.4399H40.4958L38.1342 8.14298C37.9038 7.72058 37.7694 7.34042 37.731 7.0025H37.6619C37.6389 7.36346 37.589 7.7513 37.5122 8.16602L36.6827 12.4399H35.7957ZM45.5494 12.4399L46.9088 5.42426H48.9363L49.8464 9.29498C49.9001 9.54074 49.927 9.73658 49.927 9.8825C49.927 9.89018 49.9232 9.90938 49.9155 9.9401C49.9155 9.97082 49.9117 10.0131 49.904 10.0668C49.904 10.1129 49.904 10.1628 49.904 10.2166H49.9501C50.0422 9.9785 50.1881 9.67514 50.3878 9.3065L52.5881 5.42426H54.7309L53.3715 12.4399H51.4937L52.3347 8.08538L52.3923 7.79738C52.423 7.59002 52.4768 7.36346 52.5536 7.1177H52.4845C52.4307 7.25594 52.3117 7.49018 52.1273 7.82042L49.5353 12.4399H48.6483L47.6115 8.1545C47.5577 7.90106 47.5232 7.64762 47.5078 7.39418L47.4848 7.1177H47.4157C47.4003 7.35578 47.3504 7.70522 47.2659 8.16602L46.4365 12.4399H45.5494ZM55.1149 9.9401C55.1149 9.62522 55.1495 9.2873 55.2186 8.92634C55.4413 7.7897 55.9098 6.9065 56.624 6.27674C57.3459 5.64698 58.2599 5.3321 59.3658 5.3321C60.2951 5.3321 60.9978 5.55482 61.4739 6.00026C61.9578 6.4457 62.1997 7.08698 62.1997 7.9241C62.1997 8.2313 62.1651 8.56538 62.096 8.92634C61.8656 10.063 61.3933 10.95 60.6791 11.5875C59.9648 12.2172 59.0586 12.5321 57.9603 12.5321C57.0311 12.5321 56.3245 12.3094 55.8407 11.8639C55.3568 11.4108 55.1149 10.7695 55.1149 9.9401ZM59.9994 8.92634C60.153 8.11226 60.2298 7.50938 60.2298 7.1177C60.2298 6.67994 60.153 6.36506 59.9994 6.17306C59.8458 5.98106 59.5962 5.88506 59.2506 5.88506C58.7514 5.88506 58.3635 6.10394 58.0871 6.5417C57.8106 6.97178 57.5571 7.76666 57.3267 8.92634C57.1731 9.75578 57.0963 10.3663 57.0963 10.758C57.0963 11.1958 57.1731 11.5068 57.3267 11.6911C57.4803 11.8755 57.7299 11.9676 58.0755 11.9676C58.5824 11.9676 58.9703 11.7526 59.2391 11.3225C59.5155 10.8924 59.769 10.0937 59.9994 8.92634ZM62.5819 12.4399L63.9413 5.42426H66.7752C67.4357 5.42426 67.9771 5.53946 68.3995 5.76986C68.8219 6.00026 69.0331 6.3881 69.0331 6.93338C69.0331 7.09466 69.0178 7.24058 68.987 7.37114C68.772 8.39258 68.123 9.04538 67.0402 9.32954L67.0286 9.39866C67.4741 9.4601 67.7506 9.69818 67.8581 10.1129L68.5032 12.4399H66.3144L65.796 10.0438C65.6808 9.69818 65.4274 9.51002 65.0357 9.4793L64.4597 12.4399H62.5819ZM65.1509 8.85722H65.508C66.3682 8.85722 66.8942 8.38106 67.0862 7.42874C67.1246 7.19834 67.1438 7.03706 67.1438 6.9449C67.1438 6.54554 67.0363 6.29594 66.8213 6.1961C66.6062 6.08858 66.3528 6.03482 66.061 6.03482H65.7038L65.1509 8.85722ZM75.434 6.11546H72.5886L72.1162 8.60378H73.9594L73.8327 9.28346H71.978L71.5057 11.7487H74.4318L74.305 12.4399H69.4782L70.8375 5.42426H75.5722L75.434 6.11546ZM83.6735 5.42426H85.5628L84.2034 12.4399H82.3142L82.9593 9.1337H80.5401L79.895 12.4399H78.0057L79.365 5.42426H81.2543L80.6553 8.48858H83.0745L83.6735 5.42426ZM91.769 6.11546H88.9236L88.4512 8.60378H90.2944L90.1677 9.28346H88.313L87.8407 11.7487H90.7668L90.64 12.4399H85.8132L87.1725 5.42426H91.9072L91.769 6.11546ZM91.6857 12.4399L93.045 5.42426H95.8789C96.5394 5.42426 97.0809 5.53946 97.5033 5.76986C97.9257 6.00026 98.1369 6.3881 98.1369 6.93338C98.1369 7.09466 98.1215 7.24058 98.0908 7.37114C97.8757 8.39258 97.2268 9.04538 96.1439 9.32954L96.1324 9.39866C96.5778 9.4601 96.8543 9.69818 96.9618 10.1129L97.6069 12.4399H95.4181L94.8997 10.0438C94.7845 9.69818 94.5311 9.51002 94.1394 9.4793L93.5634 12.4399H91.6857ZM94.2546 8.85722H94.6117C95.4719 8.85722 95.998 8.38106 96.19 7.42874C96.2284 7.19834 96.2476 7.03706 96.2476 6.9449C96.2476 6.54554 96.1401 6.29594 95.925 6.1961C95.71 6.08858 95.4565 6.03482 95.1647 6.03482H94.8076L94.2546 8.85722ZM104.538 6.11546H101.692L101.22 8.60378H103.063L102.936 9.28346H101.082L100.609 11.7487H103.536L103.409 12.4399H98.5819L99.9413 5.42426H104.676L104.538 6.11546Z" fill="#173071"/>
</g>
<defs>
<linearGradient id="paint0_linear_13_1016" x1="20.2424" y1="8.99806" x2="128.962" y2="8.99806" gradientUnits="userSpaceOnUse">
<stop offset="0.05" stop-color="white"/>
<stop offset="0.17" stop-color="#DCE9F5"/>
<stop offset="0.36" stop-color="#B0CEEA"/>
<stop offset="0.54" stop-color="#8EB9E0"/>
<stop offset="0.72" stop-color="#75AADA"/>
<stop offset="0.87" stop-color="#66A1D6"/>
<stop offset="1" stop-color="#619ED5"/>
</linearGradient>
<clipPath id="clip0_13_1016">
<rect width="108.72" height="18" fill="white" transform="translate(0.279999)"/>
</clipPath>
</defs>
</svg>
